<?xml version="1.0" encoding="UTF-8"?> <svg xmlns="http://www.w3.org/2000/svg" width="371" height="132" viewBox="0 0 371 132" fill="none"><path fill-rule="evenodd" clip-rule="evenodd" d="M192.6 36C193.9 35.5 195 34.8 196.2 33.9C197.4 33 198.4 31.9 199.3 30.7C200.2 29.5 201 28.1 201.4 26.5C201.9 24.9 202.2 22.7 202.2 20.9C202.2 18 201.7 15.4 200.8 13.2C199.8 11 198.6 9.19999 196.9 7.69999C195.2 6.19999 193.2 5.19999 190.9 4.49999C188.5 3.79999 185.8 3.39999 183 3.39999C181.2 3.39999 178.7 3.39999 175.7 3.49999C172.5 3.49999 168.1 3.59999 163.5 3.69999V58.9H176V38.9H179.2C185.5 38.9 187.4 42.3 188.5 46.5C189.6 50.7 190.4 56.5 191.3 58.9H203.8C200.8 54.4 201.1 38.2 192.6 36ZM182 29.2C180.2 29.2 178.2 29.3 175.9 29.3V21.2V13.1C178.2 13.1 180.3 13.2 182 13.2C189.5 13.2 189.2 19.3 189.2 21.2C189.2 23.2 189.5 29.2 182 29.2Z" fill="white"></path><path fill-rule="evenodd" clip-rule="evenodd" d="M57.7 58.1C60.3 57.3 62.5 56.1 64.3 54.6C66 53.1 67.3 51.4 68.2 49.3C69.1 47.2 69.6 45.1 69.6 42.5C69.6 39 68.5 35.9 66.6 33.3C64.5 30.7 61.5 28.5 57.6 26.8L48.1 22.8C45.1 21.5 43.5 20 43.5 17.9C43.5 16.7 44 15.6 45.1 14.7C46.2 13.7 47.6 13.2 49.8 13.2C53.8 13.2 58.6 14.4 64.1 17C66.6 14.7 68 11.5 68.3 7.5C62.2 4.6 56.4 3 50.4 3C47.5 3 44.8 3.5 42.4 4.3C40 5.2 37.8 6.4 36.1 7.8C34.4 9.3 33.1 10.9 32.1 13C31.1 15.1 30.6 17.2 30.6 19.7C30.6 23.2 31.6 26.1 33.5 28.4C35.6 30.7 38.3 32.6 41.9 34.3L51.2 38.2C54.4 39.6 56.1 41.4 56.1 44C56.1 45.4 55.6 46.6 54.5 47.6C53.5 48.7 52 49.2 49.7 49.2C44.6 49.2 39.2 47.5 33.5 44.1C32.2 45.1 31.2 46.6 30.2 48.3C29.2 50 28.7 51.7 28.5 53.5C34.7 57.3 41.1 59.3 48.4 59.4C52 59.5 55.1 59 57.7 58.1Z" fill="white"></path><path fill-rule="evenodd" clip-rule="evenodd" d="M83.0977 73.1C83.0977 72.7 80.0977 72.5 76.1977 72.5C72.2977 72.5 69.2977 72.8 69.2977 73.1L51.4977 127.3L51.0977 128.4H63.5977L66.9977 117.5C67.6977 117.6 68.7977 117.6 70.1977 117.6L75.9977 117.7L81.7977 117.6C83.2977 117.6 84.2977 117.6 84.9977 117.5L88.3977 128.4H100.898L83.0977 73.1ZM78.9977 107.6H76.2977H73.5977L70.3977 107.7L72.2977 100.5C74.4977 92.5 75.6977 88.3 76.0977 86H76.3977H76.6977C77.0977 88.3 78.3977 92.5 80.4977 100.5L82.3977 107.7L78.9977 107.6Z" fill="white"></path><path fill-rule="evenodd" clip-rule="evenodd" d="M120.7 73.1C120.7 72.7 117.8 72.5 114.1 72.5C110.5 72.5 107.5 72.8 107.5 73.1V128.4H141.7V117.5H120.6V73.1H120.7Z" fill="white"></path><path fill-rule="evenodd" clip-rule="evenodd" d="M162.799 73.2H149.699V73.8V93.6V107.9V127.7V128.4H171.599H183.799V117.6H162.799V105.7H171.799H180.099V94.9H162.999H162.799V84H183.799V73.2H171.599H162.799Z" fill="white"></path><path fill-rule="evenodd" clip-rule="evenodd" d="M301.498 72.5C297.998 72.5 295.098 72.8 295.098 73.1V128.4H307.998V73.1C307.998 72.8 305.098 72.5 301.498 72.5Z" fill="white"></path><path fill-rule="evenodd" clip-rule="evenodd" d="M230.299 72.5C227.099 72.5 224.499 72.8 224.399 73.1V112.6C223.299 110 221.999 106.5 220.099 102.2L207.699 73.1C207.599 72.8 204.299 72.5 200.199 72.5C196.099 72.5 192.799 72.8 192.699 73.1V128.1V128.4H204.499V90.1C205.799 93.5 207.099 96.8 208.399 99.4L220.899 128.4H236.099V73.1C236.099 72.8 233.599 72.5 230.299 72.5Z" fill="white"></path><path fill-rule="evenodd" clip-rule="evenodd" d="M346.699 73.1C346.699 72.7 343.699 72.5 339.799 72.5C335.899 72.5 332.899 72.8 332.899 73.1L315.099 127.3L314.699 128.4H327.199L330.599 117.5C331.299 117.6 332.399 117.6 333.799 117.6L339.599 117.7L345.399 117.6C346.899 117.6 347.899 117.6 348.599 117.5L351.999 128.4H364.499L346.699 73.1ZM342.499 107.6H339.799H337.099L333.899 107.7L335.799 100.5C337.999 92.5 339.199 88.3 339.599 86H339.899H340.199C340.599 88.3 341.899 92.5 343.999 100.5L345.899 107.7L342.499 107.6Z" fill="white"></path><path fill-rule="evenodd" clip-rule="evenodd" d="M256.198 100.5C256.198 94.5 256.998 91.6 258.498 88.6C259.998 85.6 262.398 84 265.698 84C270.298 84 274.198 87.5 274.198 93.7C276.098 94.5 278.098 94.8 280.498 94.9C282.898 95 284.998 94.5 286.998 93.8C287.098 89.9 286.498 72.6 265.898 72.6C262.798 72.6 259.698 72.9 256.998 74.1C254.298 75.3 251.798 77.1 249.798 79.5C247.698 81.9 246.098 84.9 244.898 88.5C243.698 92 243.098 96.1 243.098 100.7V101.1C243.098 105.7 243.698 109.8 244.898 113.3C246.098 116.9 247.698 119.9 249.798 122.3C251.898 124.6 254.298 126.5 256.998 127.7C259.698 128.9 262.798 129.2 265.898 129.2C286.598 129.2 287.098 111.9 286.998 108C284.998 107.3 282.898 106.8 280.498 106.9C278.198 107 276.098 107.3 274.198 108.1C274.198 114.3 270.298 117.8 265.698 117.8C262.398 117.8 259.898 116.2 258.498 113.2C256.998 110.2 256.198 107.2 256.198 101.3V100.5Z" fill="white"></path><path fill-rule="evenodd" clip-rule="evenodd" d="M140.098 3.6C140.098 3.2 137.098 3 133.198 3C129.298 3 126.298 3.3 126.298 3.6L108.498 57.7L108.098 58.8H120.598L123.998 47.9C124.698 48 125.798 48 127.198 48L132.998 48.1L138.798 48C140.298 48 141.298 48 141.998 47.9L145.398 58.8H157.898L140.098 3.6ZM135.998 37.9H133.298H130.598L127.398 38L129.298 30.8C131.498 22.8 132.698 18.6 133.098 16.3H133.398H133.698C134.098 18.6 135.398 22.8 137.498 30.8L139.398 38L135.998 37.9Z" fill="white"></path><path fill-rule="evenodd" clip-rule="evenodd" d="M288.301 2.89999C284.901 2.89999 282.001 3.19999 282.001 3.49999V38.6C282.001 42.3 281.401 45 280.001 46.8C278.701 48.7 276.501 49.5 273.301 49.5H273.201H273.101C269.901 49.5 267.701 48.6 266.401 46.8C265.001 44.9 264.401 42.2 264.401 38.6V3.49999C264.401 3.09999 261.601 2.89999 258.101 2.89999C254.701 2.89999 251.801 3.19999 251.801 3.49999V38.5C251.801 45.3 253.701 50.4 257.301 54.1C261.001 57.8 266.201 59.6 273.101 59.6C280.001 59.6 285.201 57.7 288.901 54.1C292.601 50.4 294.401 45.3 294.401 38.5V3.49999C294.601 3.19999 291.701 2.89999 288.301 2.89999Z" fill="white"></path><path d="M56.0992 73.1C56.0992 72.7 53.0992 72.5 49.2992 72.5C45.4992 72.5 42.4992 72.8 42.4992 73.1C42.1992 74.5 35.1992 98 31.1992 110C27.1992 98 20.2992 74.5 19.7992 73.1C19.7992 72.7 16.7992 72.5 12.9992 72.5C9.29922 72.5 6.19922 72.8 6.19922 73.1L24.0992 128.4H30.6992H30.7992H30.9992H31.1992H31.3992H31.4992H31.5992H38.1992L56.0992 73.1Z" fill="white"></path><path fill-rule="evenodd" clip-rule="evenodd" d="M112 3.7C111.9 3.7 111.9 3.7 112 3.7H92.3H72.6C72.3 3.7 72 6.1 72 9C72 12 72.3 14.4 72.6 14.4H80.8L85.8 14.3V58.9H92.2H98.6V14.3L103.6 14.4H111.8C112.1 14.4 112.4 12 112.4 9C112.6 6.1 112.3 3.7 112 3.7Z" fill="white"></path><path fill-rule="evenodd" clip-rule="evenodd" d="M341.501 14C340.601 11.7 339.201 9.6 337.601 8C335.901 6.3 333.901 5.2 331.401 4.4C329.001 3.6 326.301 3.2 323.401 3.2C321.801 3.2 319.501 3.2 316.401 3.3C313.401 3.3 308.901 3.4 304.301 3.5V58.8H316.901V41.1H323.301C326.201 41.1 328.901 40.7 331.101 39.9C333.401 39.1 335.601 37.8 337.301 36.3C339.101 34.7 340.301 32.7 341.301 30.3C342.301 27.9 342.801 25.2 342.801 22.1C342.701 19 342.401 16.3 341.501 14ZM323.101 31.4C321.301 31.4 319.301 31.5 316.901 31.5V22.3V13C319.201 13 321.301 13.1 323.101 13.1C330.601 13.1 330.301 20 330.301 22.2C330.301 24.4 330.601 31.4 323.101 31.4Z" fill="white"></path><path fill-rule="evenodd" clip-rule="evenodd" d="M245.801 3.7H226.101H206.401C206.101 3.7 205.801 6.1 205.801 9.1C205.801 12.1 206.101 14.5 206.401 14.5H214.601L219.601 14.4V59H226.001H232.401V14.3L237.401 14.4H245.601C245.901 14.4 246.201 12 246.201 9C246.401 6.1 246.201 3.7 245.801 3.7Z" fill="white"></path></svg> 